<svg xmlns="http://www.w3.org/2000/svg" viewBox="0 0 436 60" class="MY:brand-logo:bar-code">
    <title>BarCode</title>
    <g class="MY:brand-logo:bar-code:rectangles:group">
        <rect class="MY:brand-logo:bar-code:rectangle" width="9.15" height="60"/>
        <rect class="MY:brand-logo:bar-code:rectangle" x="18.29" width="9.15" height="60"/>
        <rect class="MY:brand-logo:bar-code:rectangle" x="48.78" width="9.15" height="60"/>
        <rect class="MY:brand-logo:bar-code:rectangle" x="67.08" width="9.15" height="60"/>
        <rect class="MY:brand-logo:bar-code:rectangle" x="103.66" width="9.15" height="60"/>
        <rect class="MY:brand-logo:bar-code:rectangle" x="134.15" width="9.15" height="60"/>
        <rect class="MY:brand-logo:bar-code:rectangle" x="195.13" width="9.15" height="60"/>
        <rect class="MY:brand-logo:bar-code:rectangle" x="213.43" width="9.15" height="60"/>
        <rect class="MY:brand-logo:bar-code:rectangle" x="256.11" width="9.15" height="60"/>
        <rect class="MY:brand-logo:bar-code:rectangle" x="280.5" width="9.15" height="60"/>
        <rect class="MY:brand-logo:bar-code:rectangle" x="292.7" width="9.15" height="60"/>
        <rect class="MY:brand-logo:bar-code:rectangle" x="310.99" width="9.15" height="60"/>
        <rect class="MY:brand-logo:bar-code:rectangle" x="353.68" width="9.15" height="60"/>
        <rect class="MY:brand-logo:bar-code:rectangle" x="378.07" width="9.15" height="60"/>
        <rect class="MY:brand-logo:bar-code:rectangle" x="390.27" width="9.15" height="60"/>
        <rect class="MY:brand-logo:bar-code:rectangle" x="408.56" width="9.15" height="60"/>
        <rect class="MY:brand-logo:bar-code:rectangle" x="30.49" width="3.05" height="60"/>
        <rect class="MY:brand-logo:bar-code:rectangle" x="36.59" width="3.05" height="60"/>
        <rect class="MY:brand-logo:bar-code:rectangle" x="42.69" width="3.05" height="60"/>
        <rect class="MY:brand-logo:bar-code:rectangle" x="60.98" width="3.05" height="60"/>
        <rect class="MY:brand-logo:bar-code:rectangle" x="85.37" width="3.05" height="60"/>
        <rect class="MY:brand-logo:bar-code:rectangle" x="91.47" width="3.05" height="60"/>
        <rect class="MY:brand-logo:bar-code:rectangle" x="97.57" width="3.05" height="60"/>
        <rect class="MY:brand-logo:bar-code:rectangle" x="115.86" width="3.05" height="60"/>
        <rect class="MY:brand-logo:bar-code:rectangle" x="128.06" width="3.05" height="60"/>
        <rect class="MY:brand-logo:bar-code:rectangle" x="146.35" width="3.05" height="60"/>
        <rect class="MY:brand-logo:bar-code:rectangle" x="152.45" width="3.05" height="60"/>
        <rect class="MY:brand-logo:bar-code:rectangle" x="164.64" width="3.05" height="60"/>
        <rect class="MY:brand-logo:bar-code:rectangle" x="176.84" width="3.05" height="60"/>
        <rect class="MY:brand-logo:bar-code:rectangle" x="189.03" width="3.05" height="60"/>
        <rect class="MY:brand-logo:bar-code:rectangle" x="207.33" width="3.05" height="60"/>
        <rect class="MY:brand-logo:bar-code:rectangle" x="225.62" width="3.05" height="60"/>
        <rect class="MY:brand-logo:bar-code:rectangle" x="237.82" width="3.05" height="60"/>
        <rect class="MY:brand-logo:bar-code:rectangle" x="243.92" width="3.05" height="60"/>
        <rect class="MY:brand-logo:bar-code:rectangle" x="250.01" width="3.05" height="60"/>
        <rect class="MY:brand-logo:bar-code:rectangle" x="274.41" width="3.05" height="60"/>
        <rect class="MY:brand-logo:bar-code:rectangle" x="304.9" width="3.05" height="60"/>
        <rect class="MY:brand-logo:bar-code:rectangle" x="323.19" width="3.05" height="60"/>
        <rect class="MY:brand-logo:bar-code:rectangle" x="335.38" width="3.05" height="60"/>
        <rect class="MY:brand-logo:bar-code:rectangle" x="341.48" width="3.05" height="60"/>
        <rect class="MY:brand-logo:bar-code:rectangle" x="347.58" width="3.05" height="60"/>
        <rect class="MY:brand-logo:bar-code:rectangle" x="365.87" width="3.05" height="60"/>
        <rect class="MY:brand-logo:bar-code:rectangle" x="402.46" width="3.05" height="60"/>
        <rect class="MY:brand-logo:bar-code:rectangle" x="426.85" width="3.05" height="60"/>
        <rect class="MY:brand-logo:bar-code:rectangle" x="432.95" width="3.05" height="60"/>
    </g>
</svg>
