<svg xmlns="http://www.w3.org/2000/svg" viewBox="0 0 31.47 121.38" class="MY:brand-logo:right-bracket">
    <title>RightBracket</title>
    <g class="MY:brand-logo:right-bracket:paths:group">
        <path class="MY:brand-logo:right-bracket:path" d="M4.8,121.38H0v-4.1H4.38a17.39,17.39,0,0,0,3-.22q4.07-.66,5.71-3.3,2.17-3.54,2.18-11,0-6.91-.42-13.2t-.42-13.9A25.31,25.31,0,0,1,16,65.91,8.52,8.52,0,0,1,21.59,61v-.56a10.23,10.23,0,0,1-2.81-1.34A8,8,0,0,1,16,55.61,24.9,24.9,0,0,1,14.4,46v-.26q0-7.62.42-13.9.33-4.89.4-9.78c0-1.14,0-2.28,0-3.42a38.61,38.61,0,0,0-.17-3.88,18.29,18.29,0,0,0-1.55-6.27,8.84,8.84,0,0,0-.46-.86A6.61,6.61,0,0,0,9.88,5a14.36,14.36,0,0,0-5.5-.92H0V0H4.8c1,0,2.1.05,3.14.15a20.28,20.28,0,0,1,3.7.7,11.2,11.2,0,0,1,3.79,1.91,9.18,9.18,0,0,1,1.08,1,11,11,0,0,1,1.82,2.57,15.72,15.72,0,0,1,1,2.53l.12.4a23.21,23.21,0,0,1,.6,2.87,40.62,40.62,0,0,1,.38,6q0,4.62-.21,9.24c-.08,1.83-.2,3.67-.35,5.5q-.57,6.86-.56,14.47a16.72,16.72,0,0,0,.49,4.09,8.47,8.47,0,0,0,1.83,3.53,8.17,8.17,0,0,0,1.73,1.49,11.71,11.71,0,0,0,4.17,1.69,20.14,20.14,0,0,0,3.91.35V63a21.27,21.27,0,0,0-2.52.13,14.06,14.06,0,0,0-2.32.44,10.43,10.43,0,0,0-1.23.41,12.27,12.27,0,0,0-1.77.9,8.46,8.46,0,0,0-2,1.65A8.36,8.36,0,0,0,19.86,70l0,.13a18.65,18.65,0,0,0-.49,4.24q0,7.34.56,14.18t.56,14.75c0,1.16,0,2.31-.11,3.46A31.19,31.19,0,0,1,20,110c-.13.74-.29,1.46-.49,2.18a13.43,13.43,0,0,1-2.64,5.16l-.33.35a10.82,10.82,0,0,1-4.68,2.84l-.19,0a22.87,22.87,0,0,1-5.8.83Z"/>
    </g>
</svg>
