<svg xmlns="http://www.w3.org/2000/svg" viewBox="0 0 31.47 121.38"><title>LeftBracket</title><g id="Livello_2" data-name="Livello 2"><g id="Parentheses"><path d="M25.63,121.36a22.87,22.87,0,0,1-5.8-.83l-.19,0A10.88,10.88,0,0,1,15,117.64c-.11-.12-.22-.23-.32-.35A13.16,13.16,0,0,1,12,112.13a20.24,20.24,0,0,1-.5-2.18,31.31,31.31,0,0,1-.37-3.18c-.08-1.15-.12-2.3-.12-3.46q0-7.91.56-14.75t.57-14.18a18.67,18.67,0,0,0-.5-4.24l0-.13a8.36,8.36,0,0,0-1.8-3.53,8.26,8.26,0,0,0-2-1.65,11.78,11.78,0,0,0-1.77-.9,10.93,10.93,0,0,0-1.22-.41,14.18,14.18,0,0,0-2.33-.44A21.16,21.16,0,0,0,0,63V58.43a20.07,20.07,0,0,0,3.91-.35,11.65,11.65,0,0,0,2.16-.64,12.34,12.34,0,0,0,2-1A7.88,7.88,0,0,0,9.81,54.9a8.47,8.47,0,0,0,1.83-3.53,16.72,16.72,0,0,0,.5-4.09q0-7.62-.57-14.47c-.15-1.83-.27-3.67-.35-5.5Q11,22.69,11,18.07a42.06,42.06,0,0,1,.38-6A21.54,21.54,0,0,1,12,9.24a3.57,3.57,0,0,1,.12-.4,14.84,14.84,0,0,1,1-2.53A11,11,0,0,1,15,3.74a11.11,11.11,0,0,1,1.08-1A11.29,11.29,0,0,1,19.83.85a20.45,20.45,0,0,1,3.7-.7c1-.1,2.09-.15,3.14-.15h4.8V4.09H27.1A14.32,14.32,0,0,0,21.6,5a6.57,6.57,0,0,0-3.18,2.61,8.92,8.92,0,0,0-.47.86,18.52,18.52,0,0,0-1.55,6.27c-.12,1.29-.17,2.58-.17,3.88q0,1.71,0,3.42.07,4.89.39,9.78.44,6.27.43,13.9V46a24.9,24.9,0,0,1-1.55,9.62,8.13,8.13,0,0,1-2.84,3.46,10.09,10.09,0,0,1-2.81,1.34V61a8.53,8.53,0,0,1,5.65,4.94,25.5,25.5,0,0,1,1.55,9.74q0,7.62-.43,13.9t-.42,13.2q0,7.47,2.19,11,1.63,2.64,5.7,3.3a17.51,17.51,0,0,0,3,.22h4.37v4.1h-4.8Z"/></g></g></svg>