<svg xmlns="http://www.w3.org/2000/svg" viewBox="0 0 158.9 23.88"><title>TextDone</title><g id="Livello_2" data-name="Livello 2"><g id="Livello_1-2" data-name="Livello 1"><path d="M96.2,23.42V.14h2.51l9.73,17.26V.14h2.91v.3c-1.1.07,0,22.18-.4,23h-2L98.61,5.16V23.42Z"/><polygon points="144.65 23.42 144.65 0.14 158.9 0.14 158.9 2.45 147.06 2.45 147.06 10.07 156.89 10.07 156.89 12.48 147.06 12.48 147.06 21.11 158.8 21.11 158.8 23.42 144.65 23.42"/><path d="M15,9.65C14.53.55,7.41-.47,0,.14V23.42C10.38,24.67,16.09,20.39,15,9.65ZM2.51,21.41V2.35c6.62-1.07,10.53,3.23,10,9.73C13,18.94,8.42,22.24,2.51,21.41Z"/><path d="M58.37.56C45.7-3.8,43.21,19.46,52.78,23.4,65.09,27.4,67.72,5,58.37.56Zm-2.9,21c-7.93-.38-7.77-18.58,0-19.16C63.2,2.67,63.29,21.3,55.47,21.51Z"/></g></g></svg>