<svg xmlns="http://www.w3.org/2000/svg" viewBox="0 0 112.73 23.34"><title>TextWeb</title><g id="Livello_2" data-name="Livello 2"><g id="Livello_1-2" data-name="Livello 1"><polygon points="3.71 23.31 0 0.04 2.41 0.04 4.92 15.79 8.73 1.75 9.53 1.75 13.24 15.89 15.35 0.04 17.55 0.04 13.94 23.31 12.94 23.31 8.93 8.16 4.82 23.31 3.71 23.31"/><polygon points="49.76 23.31 49.76 0.04 64 0.04 64 2.35 52.16 2.35 52.16 9.97 61.99 9.97 61.99 12.38 52.16 12.38 52.16 21 63.9 21 63.9 23.31 49.76 23.31"/><path d="M108.34,10.87c3.86-1.2,4.78-7,1.5-9.33C107.1-.73,100.9.24,97.51,0V23.31c3.47-.1,10.66.62,13-1.7C114.37,18.68,112.89,12.17,108.34,10.87ZM100,2.25c3.11,0,9.11-.77,9.23,3.71.46,4-5.91,3.84-9.23,3.71Zm9.88,15.2C109.42,22,103.22,20.88,100,21V11.88C104.13,11.6,111,11.75,109.89,17.45Z"/></g></g></svg>