<svg xmlns="http://www.w3.org/2000/svg" viewBox="0 0 32 123" class="MY:brand-logo:right-bracket">
    <title>RightBracket</title>
    <g class="MY:brand-logo:right-bracket:paths:group">
        <path d="M4.88,123H0v-4.15H4.45a19.1,19.1,0,0,0,3-.22q4.14-.67,5.8-3.35,2.23-3.59,2.23-11.16,0-7-.43-13.37t-.43-14.09a25.52,25.52,0,0,1,1.58-9.87,8.61,8.61,0,0,1,5.74-5v-.58a10.41,10.41,0,0,1-2.86-1.35,8.22,8.22,0,0,1-2.88-3.51c-1-2.33-1.56-5.58-1.58-9.74v-.27q0-7.73.43-14.09.33-5,.4-9.91c0-1.15,0-2.31,0-3.46,0-1.31-.06-2.63-.18-3.94a18.59,18.59,0,0,0-1.57-6.35,7.37,7.37,0,0,0-.48-.87A6.65,6.65,0,0,0,10,5.08a14.57,14.57,0,0,0-5.59-.93H0V0H4.88C6,0,7,.05,8.08.15a21.29,21.29,0,0,1,3.76.71A11.19,11.19,0,0,1,15.69,2.8a11.57,11.57,0,0,1,1.1,1A11.13,11.13,0,0,1,18.64,6.4a15.71,15.71,0,0,1,1,2.56l.12.41a23.74,23.74,0,0,1,.62,2.9,41.67,41.67,0,0,1,.39,6q0,4.68-.22,9.36-.12,2.79-.36,5.58-.57,6.95-.57,14.66a17.21,17.21,0,0,0,.5,4.15A8.62,8.62,0,0,0,22,55.64a8.42,8.42,0,0,0,1.75,1.51,12.29,12.29,0,0,0,2,1.06,11.85,11.85,0,0,0,2.2.65,20.64,20.64,0,0,0,4,.35v4.58a24.57,24.57,0,0,0-2.57.13,15.7,15.7,0,0,0-2.36.45,9.53,9.53,0,0,0-1.24.42,11.68,11.68,0,0,0-1.8.91,8.23,8.23,0,0,0-3.83,5.24,1,1,0,0,0,0,.14,19,19,0,0,0-.5,4.29q0,7.44.57,14.38t.58,14.94q0,1.75-.12,3.51a31.92,31.92,0,0,1-.39,3.22,18.58,18.58,0,0,1-.5,2.21,13.41,13.41,0,0,1-2.68,5.22c-.11.13-.22.24-.33.36A11.08,11.08,0,0,1,12,122.09l-.19,0a23.15,23.15,0,0,1-5.9.84Z"/>
    </g>
</svg>
