<svg xmlns="http://www.w3.org/2000/svg" viewBox="0 0 32 123" class="MY:brand-logo:left-bracket">
    <title>LeftBracket</title>
    <g class="MY:brand-logo:left-bracket:paths:group">
        <path d="M26.06,123a23.15,23.15,0,0,1-5.9-.84l-.19,0a11.08,11.08,0,0,1-4.76-2.88c-.11-.12-.22-.23-.33-.36a13.41,13.41,0,0,1-2.68-5.22,18.58,18.58,0,0,1-.5-2.21,31.92,31.92,0,0,1-.39-3.22q-.12-1.76-.12-3.51,0-8,.58-14.94t.57-14.38a19,19,0,0,0-.5-4.29,1,1,0,0,0,0-.14A8.23,8.23,0,0,0,8,65.7a11.68,11.68,0,0,0-1.8-.91,9.53,9.53,0,0,0-1.24-.42,15.7,15.7,0,0,0-2.36-.45A24.57,24.57,0,0,0,0,63.79V59.21a20.64,20.64,0,0,0,4-.35,11.85,11.85,0,0,0,2.2-.65,12.29,12.29,0,0,0,2.05-1.06A8.42,8.42,0,0,0,10,55.64a8.62,8.62,0,0,0,1.87-3.58,17.21,17.21,0,0,0,.5-4.15q0-7.72-.57-14.66-.24-2.79-.36-5.58-.23-4.68-.22-9.36a41.67,41.67,0,0,1,.39-6,23.74,23.74,0,0,1,.62-2.9L12.32,9a15.71,15.71,0,0,1,1-2.56,11.13,11.13,0,0,1,1.85-2.61,11.57,11.57,0,0,1,1.1-1A11.19,11.19,0,0,1,20.16.86,21.29,21.29,0,0,1,23.92.15C25,.05,26.05,0,27.12,0H32V4.15H27.55A14.57,14.57,0,0,0,22,5.08a6.65,6.65,0,0,0-3.23,2.64,7.37,7.37,0,0,0-.48.87,18.59,18.59,0,0,0-1.57,6.35c-.12,1.31-.18,2.63-.18,3.94,0,1.15,0,2.31,0,3.46q.07,5,.4,9.91.43,6.36.43,14.09v.27c0,4.16-.54,7.41-1.58,9.74a8.22,8.22,0,0,1-2.88,3.51A10.41,10.41,0,0,1,10,61.21v.58a8.61,8.61,0,0,1,5.74,5,25.52,25.52,0,0,1,1.58,9.87q0,7.73-.43,14.09t-.43,13.37q0,7.57,2.23,11.16,1.66,2.67,5.8,3.35a19.1,19.1,0,0,0,3,.22H32V123H27.12Z"/>
    </g>
</svg>
