<svg xmlns="http://www.w3.org/2000/svg" viewBox="0 0 500 300">
    <title>MY:logo</title>
    <path fill="#C5AB63" d="M230.06,10.77v279a14.36,14.36,0,0,1-.55,4.12,8,8,0,0,1-6.26,5.72,16.92,16.92,0,0,1-3.89.42,14.45,14.45,0,0,1-4-.51,7.82,7.82,0,0,1-5.74-5.95,15.67,15.67,0,0,1-.44-3.8v-258h-4.37L127.43,212.06A10.27,10.27,0,0,1,120,218a18.92,18.92,0,0,1-4.24.45,21.08,21.08,0,0,1-4.68-.49,11.49,11.49,0,0,1-8-5.86L24.32,31.78H20.91v258a15,15,0,0,1-.5,4.06,7.82,7.82,0,0,1-5.93,5.76,14.58,14.58,0,0,1-3.78.44,16.29,16.29,0,0,1-4.17-.49Q0,297.76,0,289.74v-279Q0,.72,14.93,0l.63,0,1.36,0q9.13,0,14.5,3.8a16.18,16.18,0,0,1,5.54,7l78.31,177.35L191.63,10.77a16.75,16.75,0,0,1,10-9A30.18,30.18,0,0,1,209,.23Q211.24,0,213.52,0q11.63,0,15.08,5.32A9.69,9.69,0,0,1,230.06,10.77ZM407.59,165.58v124a14.8,14.8,0,0,1-.55,4.19,8.08,8.08,0,0,1-6.26,5.8,16.4,16.4,0,0,1-3.89.43,14.45,14.45,0,0,1-4-.52,7.87,7.87,0,0,1-5.74-6,16.16,16.16,0,0,1-.44-3.86l.49-124.5q-11.48-17.22-22.91-34.49Q289.4,17.59,289.4,12.81a7.28,7.28,0,0,1,1.07-3.75,11.47,11.47,0,0,1,1.74-2.29A18.83,18.83,0,0,1,294,5.12a18,18,0,0,1,5.62-3.24,9.51,9.51,0,0,1,2.89-.48,4.94,4.94,0,0,1,2,.42,4.81,4.81,0,0,1,1.85,1.57l90.47,140.37L482,3.39a3.88,3.88,0,0,1,1.08-1.3A8.91,8.91,0,0,1,486,.65c.27-.09.56-.17.84-.24a13.15,13.15,0,0,1,3.74.58,19.38,19.38,0,0,1,3.23,1.31c.52.26,1,.54,1.54.84a12.82,12.82,0,0,1,2.13,1.54,8.15,8.15,0,0,1,1.75,2.17,6.29,6.29,0,0,1,.74,3q0,1.74-32.95,57.07-5.16,8.67-10.34,17.34Q431.92,124.91,407.59,165.58Z"/>
</svg>
