<svg class="MY:brand-logo:text:web:B" xmlns="http://www.w3.org/2000/svg" viewBox="0 0 11.32 23">
    <title>TextWeb-B</title>
    <g class="MY:brand-logo:text:web:B:paths:group">
        <path d="M0,23V0H5.34a9.51,9.51,0,0,1,1.6.13A6.1,6.1,0,0,1,8.47.6a4.2,4.2,0,0,1,2.38,3.11A6.51,6.51,0,0,1,11,5V7.08a3.63,3.63,0,0,1-2.51,3.85,4.56,4.56,0,0,1,1.45.67,3.37,3.37,0,0,1,1.31,2.16,5.06,5.06,0,0,1,.1,1.1v3.19a6.24,6.24,0,0,1-.16,1.49,4.26,4.26,0,0,1-1.25,2.17A5.42,5.42,0,0,1,6.79,23c-.36,0-.73.05-1.09.05Zm8.85-4.95V14.86a3,3,0,0,0-.6-1.76c-.08-.1-.16-.21-.25-.31a3,3,0,0,0-2.3-.94H2.48v9H5.7A3.13,3.13,0,0,0,8,20.05a2.73,2.73,0,0,0,.84-2Zm-.36-11V5a2.67,2.67,0,0,0-.82-2V3a2.75,2.75,0,0,0-1.33-.74,4.67,4.67,0,0,0-1-.11H2.48v8H5.34a3.6,3.6,0,0,0,1-.11,2.71,2.71,0,0,0,1.34-.81,3.08,3.08,0,0,0,.63-1A2.87,2.87,0,0,0,8.49,7.08Z"/>
    </g>
</svg>
