<svg class="MY:brand-logo:text:done:O" xmlns="http://www.w3.org/2000/svg" viewBox="0 0 11.5 23">
    <title>TextDone-O</title>
    <g class="MY:brand-logo:text:done:O:paths:group">
        <path d="M11.5,4.74V18.26a5.79,5.79,0,0,1-.17,1.44,4,4,0,0,1-1.27,2.07,5.54,5.54,0,0,1-3,1.16A10.86,10.86,0,0,1,5.77,23a6.55,6.55,0,0,1-4.32-1.23A4.1,4.1,0,0,1,.09,19.35,6.59,6.59,0,0,1,0,18.26V4.74A5.79,5.79,0,0,1,.17,3.3,4,4,0,0,1,1.44,1.23a5.54,5.54,0,0,1,3-1.16A11,11,0,0,1,5.73,0a6.55,6.55,0,0,1,4.32,1.23,4.1,4.1,0,0,1,1.36,2.42A6.59,6.59,0,0,1,11.5,4.74ZM9.13,18.26V4.74c0-1.63-.91-2.53-2.75-2.68q-.32,0-.63,0a6.32,6.32,0,0,0-1.23.11,2.4,2.4,0,0,0-2.15,2.6V18.26c0,1.63.92,2.53,2.75,2.68q.32,0,.63,0A6.32,6.32,0,0,0,7,20.86,2.4,2.4,0,0,0,9.13,18.26Z"/>
    </g>
</svg>
