<svg class="MY:brand-logo:text:done:D" xmlns="http://www.w3.org/2000/svg" viewBox="0 0 11.32 23">
    <title>TextDone-D</title>
    <g class="MY:brand-logo:text:done:D:paths:group">
        <path d="M5.7,23H0V0H5.7A9.39,9.39,0,0,1,7.29.13,6.18,6.18,0,0,1,8.83.6a4.19,4.19,0,0,1,1.06.71,4.28,4.28,0,0,1,1.32,2.4A5.78,5.78,0,0,1,11.32,5v13.1a6.24,6.24,0,0,1-.16,1.49,4.26,4.26,0,0,1-1.25,2.17A5.42,5.42,0,0,1,6.79,23C6.43,23,6.06,23,5.7,23Zm3.15-4.95V5A2.75,2.75,0,0,0,8,3L8,3a2.7,2.7,0,0,0-1.33-.74,4.67,4.67,0,0,0-.95-.11H2.48V20.88H5.7A3.13,3.13,0,0,0,8,20.05a2.73,2.73,0,0,0,.84-2Z"/>
    </g>
</svg>
